<svg width="56" height="56" viewBox="0 0 56 56" fill="none" xmlns="http://www.w3.org/2000/svg">
<rect width="56" height="56" rx="28" fill="#0B1F4B"/>
<path d="M20.125 33.0625H35.875M21.8125 33.0625V35.875C21.8125 36.1734 21.694 36.4595 21.483 36.6705C21.272 36.8815 20.9859 37 20.6875 37H19.5625C19.2641 37 18.978 36.8815 18.767 36.6705C18.556 36.4595 18.4375 36.1734 18.4375 35.875V33.0625M37.5625 33.0625V35.875C37.5625 36.1734 37.444 36.4595 37.233 36.6705C37.022 36.8815 36.7359 37 36.4375 37H35.3125C35.0141 37 34.728 36.8815 34.517 36.6705C34.306 36.4595 34.1875 36.1734 34.1875 35.875V33.0625" stroke="#D4AF37" stroke-width="1.6875" stroke-linecap="round" stroke-linejoin="round"/>
<path d="M19 33.0625L20.8 25.075C20.9432 24.6197 21.2274 24.2217 21.6117 23.9386C21.9959 23.6555 22.4602 23.5019 22.9375 23.5H33.0625C33.5398 23.5019 34.0041 23.6555 34.3883 23.9386C34.7726 24.2217 35.0568 24.6197 35.2 25.075L37 33.0625H19Z" stroke="#D4AF37" stroke-width="1.6875" stroke-linecap="round" stroke-linejoin="round"/>
<path d="M21.8125 28.8999H34.1875" stroke="#D4AF37" stroke-width="1.6875" stroke-linecap="round" stroke-linejoin="round"/>
</svg>
